<svg id="图层_1" data-name="图层 1" xmlns="http://www.w3.org/2000/svg" viewBox="0 0 815.52 1263.78"><defs><style>.cls-1,.cls-10,.cls-9{fill:none;}.cls-1,.cls-10,.cls-2,.cls-3,.cls-4,.cls-5,.cls-6,.cls-7,.cls-9{stroke:#231815;stroke-miterlimit:10;}.cls-1{stroke-width:4px;}.cls-2{fill:#fadfb8;}.cls-2,.cls-3,.cls-4,.cls-5,.cls-6,.cls-7{stroke-width:5px;}.cls-3{fill:#fbdde2;}.cls-4{fill:#c1e3f2;}.cls-5{fill:#eef2c1;}.cls-6{fill:#d7deeb;}.cls-7{fill:#c7e4cd;}.cls-8{fill:#231815;}.cls-9{stroke-width:3px;}.cls-10{stroke-width:2px;}</style></defs><title>未标题-3</title><rect class="cls-1" x="433.56" y="237.66" width="316.85" height="685.28" rx="28.09"/><rect class="cls-2" x="459.34" y="719.05" width="218.55" height="121.5" rx="8.94"/><rect class="cls-3" x="459.34" y="1044.47" width="218.55" height="86.13" rx="8.94"/><rect class="cls-3" x="134.58" y="1044.47" width="218.55" height="86.13" rx="8.94"/><rect class="cls-2" x="459.34" y="497.69" width="218.55" height="89.59" rx="8.94"/><rect class="cls-2" x="134.58" y="754.03" width="218.55" height="89.59" rx="8.94"/><rect class="cls-4" x="459.34" y="313.09" width="218.55" height="89.59" rx="8.94"/><rect class="cls-4" x="134.58" y="531.39" width="218.55" height="89.59" rx="8.94"/><rect class="cls-5" x="459.34" y="665.57" width="216.26" height="38.81" rx="6.77"/><rect class="cls-5" x="135.73" y="702.09" width="216.26" height="38.81" rx="6.77"/><rect class="cls-5" x="459.34" y="447.02" width="216.26" height="38.81" rx="6.77"/><rect class="cls-5" x="134.58" y="481.35" width="216.26" height="38.81" rx="6.77"/><rect class="cls-6" x="459.34" y="163.85" width="216.26" height="38.81" rx="6.77"/><rect class="cls-5" x="459.34" y="258.3" width="216.26" height="38.81" rx="6.77"/><rect class="cls-7" x="459.34" y="78.83" width="216.26" height="38.81" rx="6.77"/><path class="cls-8" d="M577.37,1152.12c-3.81-4.37-7.41-11.42-9.51-17.1-2.11,5.68-5.71,12.73-9.51,17.1l6.87-2.49v46.92h5.27v-46.92Z"/><path class="cls-8" d="M252.44,863.35c-3.44-4.37-6.68-11.41-8.59-17.09-1.9,5.68-5.14,12.72-8.58,17.09l6.2-2.49V972.64h4.77V860.86Z"/><path class="cls-8" d="M166.07,859.67l6.2,2.49c-3.44-4.37-6.68-11.42-8.59-17.1-1.9,5.68-5.14,12.73-8.58,17.1l6.2-2.49"/><path class="cls-8" d="M489.83,605.32,496,607.8c-3.44-4.37-6.69-11.41-8.59-17.09-1.9,5.68-5.15,12.72-8.58,17.09l6.2-2.48"/><path class="cls-8" d="M570.24,605.74l6.2,2.49c-3.44-4.37-6.68-11.42-8.58-17.1-1.91,5.68-5.15,12.73-8.59,17.1l6.2-2.49"/><path class="cls-8" d="M649.56,605.74l6.2,2.49c-3.44-4.37-6.68-11.42-8.59-17.1-1.9,5.68-5.14,12.73-8.58,17.1l6.2-2.49"/><path class="cls-8" d="M117.28,720.19,114.8,714c4.37,3.44,11.41,6.68,17.09,8.58-5.68,1.9-12.72,5.15-17.09,8.59l2.48-6.2"/><path class="cls-8" d="M325.79,859.67l6.2,2.49c-3.43-4.37-6.68-11.42-8.58-17.1-1.9,5.68-5.15,12.73-8.59,17.1l6.21-2.49"/><path class="cls-8" d="M252.44,642c-3.44-4.37-6.68-11.42-8.59-17.1-1.9,5.68-5.14,12.73-8.58,17.1l6.2-2.49v59.92h4.77V639.53Z"/><path class="cls-8" d="M576.44,423.89c-3.44-4.37-6.68-11.42-8.58-17.1-1.91,5.68-5.15,12.73-8.59,17.1l6.2-2.49v23.47h4.77V421.4Z"/><path class="cls-8" d="M576.06,225.37c-3.44-4.37-6.69-11.42-8.59-17.1-1.9,5.68-5.14,12.73-8.58,17.1l6.2-2.49V256.3h4.76V222.88Z"/><path class="cls-8" d="M576.13,141.25c-3.44-4.37-6.68-11.41-8.58-17.09-1.9,5.68-5.15,12.72-8.59,17.09l6.2-2.48v23.32h4.77V138.77Z"/><path class="cls-8" d="M576.13,55.64c-3.44-4.37-6.68-11.42-8.58-17.1-1.9,5.68-5.15,12.73-8.59,17.1l6.2-2.49V76.47h4.77V53.15Z"/><path class="cls-8" d="M576.06,864c-3.44-4.53-6.69-11.83-8.59-17.71-1.9,5.88-5.14,13.18-8.58,17.71l6.2-2.57V977.23h4.76V861.4Z"/><path class="cls-8" d="M253.37,1152.12c-3.81-4.37-7.41-11.42-9.52-17.1-2.1,5.68-5.7,12.73-9.51,17.1l6.88-2.49v46.92h5.27v-46.92Z"/><path class="cls-8" d="M253.37,1026.5c-3.81-4.37-7.41-11.42-9.52-17.1-2.1,5.68-5.7,12.73-9.51,17.1l6.88-2.49v16h5.27v-16Z"/><path class="cls-8" d="M577.37,1028.34c-3.81-3.77-7.41-9.86-9.51-14.77-2.11,4.91-5.71,11-9.51,14.77l6.87-2.14V1040h5.27v-13.85Z"/><path class="cls-1" d="M241.47,902.85H93.73s-16.34,2.72-16.68-25.53V740.89s-1.71-20.51,38.81-18.12h9"/><path class="cls-8" d="M117.28,497.81l-2.48-6.2c4.37,3.43,11.41,6.68,17.09,8.58-5.68,1.9-12.72,5.15-17.09,8.59l2.48-6.21"/><path class="cls-1" d="M241.47,660.66H93.73s-16.34,2.42-16.68-22.73V516.5s-1.71-18.26,38.81-16.14h9.28"/><path class="cls-8" d="M693.43,687.26l2.48-6.21c-4.36,3.44-11.41,6.69-17.09,8.59,5.68,1.9,12.73,5.14,17.09,8.58l-2.48-6.2"/><path class="cls-1" d="M567.86,904.47H712.59s14.78,3.24,15.09-30.43V711.47s1.54-24.44-35.11-21.6H686"/><path class="cls-8" d="M694.5,463.76l2.49-6.21c-4.37,3.44-11.42,6.68-17.1,8.59,5.68,1.9,12.73,5.14,17.1,8.58l-2.49-6.2"/><path class="cls-1" d="M568.93,646H713.66s14.78,2.72,15.09-25.47V484.41s1.54-20.46-35.1-18.08h-8.51"/><path class="cls-8" d="M691.61,273l2.48-6.2c-4.36,3.44-11.41,6.68-17.09,8.58,5.68,1.9,12.73,5.15,17.09,8.59l-2.48-6.2"/><path class="cls-1" d="M568.93,432.92H713.66s14.78,2.38,15.09-22.31V291.42s1.54-17.92-35.1-15.84H682.76"/><path class="cls-1" d="M162.92,858.09s3.83,17.61,23.23,17.1h57.71"/><path class="cls-1" d="M323.41,858.09s-3.83,17.61-23.23,17.1H242.47"/><path class="cls-8" d="M491.14,859.67l6.2,2.49c-3.43-4.37-6.68-11.42-8.58-17.1-1.9,5.68-5.15,12.73-8.59,17.1l6.21-2.49"/><path class="cls-8" d="M650.86,859.67l6.21,2.49c-3.44-4.37-6.69-11.42-8.59-17.1-1.9,5.68-5.14,12.73-8.58,17.1l6.2-2.49"/><path class="cls-1" d="M488,858.09s3.83,17.61,23.24,17.1h57.7"/><path class="cls-1" d="M648.48,858.09s-3.83,17.61-23.23,17.1h-57.7"/><line class="cls-1" x1="243.86" y1="742.17" x2="243.86" y2="752.04"/><line class="cls-9" x1="567.55" y1="706.78" x2="567.55" y2="716.65"/><line class="cls-1" x1="243.09" y1="520.84" x2="243.09" y2="530.71"/><line class="cls-9" x1="567.55" y1="486.82" x2="567.55" y2="496.7"/><line class="cls-1" x1="566.99" y1="298.57" x2="566.99" y2="311.93"/><path class="cls-1" d="M242.71,479.7V447s2.93-16.08,18.25-17.87H386.75a12.13,12.13,0,0,1,5.51,1.33c4.81,2.47,14,8.25,14,16.54V602.51s0,20.68,18.89,21.19h48a9.34,9.34,0,0,0,6.51-2.61c3.21-3.13,7.84-8.88,8.17-16.28"/><path class="cls-1" d="M474.93,623.7h77.22s15.58-3.83,15.32-18.51"/><path class="cls-1" d="M567.47,663.19v-21.8a15.58,15.58,0,0,1,2.31-8.19c2.46-4,6.88-9.39,13.24-10.28a8.92,8.92,0,0,1,1.16-.07h40.91a23.77,23.77,0,0,0,17-6.91,19.19,19.19,0,0,0,5.68-12.83"/><circle class="cls-10" cx="243.47" cy="989.19" r="16.72"/><line class="cls-10" x1="232.37" y1="989.19" x2="254.83" y2="989.19"/><line class="cls-10" x1="243.86" y1="978.09" x2="243.86" y2="999.79"/><circle class="cls-10" cx="567.47" cy="993.82" r="16.72"/><line class="cls-10" x1="556.37" y1="993.82" x2="578.83" y2="993.82"/><line class="cls-10" x1="567.86" y1="982.71" x2="567.86" y2="1004.41"/><circle class="cls-10" cx="158.58" cy="988.04" r="35.49"/><path class="cls-10" d="M124,980.06s26.67-20.74,34.59,7.34c0,0,4.33,37,34.72,8"/><circle class="cls-10" cx="651.88" cy="993.82" r="35.49"/><path class="cls-10" d="M617.23,986.11s26.73-21,34.65,7.07c0,0,4.33,37,34.72,8"/><rect class="cls-1" x="50.58" y="457.55" width="325.53" height="465.39" rx="26.39"/><line class="cls-10" x1="584.2" y1="993.82" x2="616.39" y2="993.82"/><line class="cls-10" x1="226.75" y1="989.19" x2="193.3" y2="989.19"/></svg>